<?xml version="1.0" encoding="utf-8"?>
<!-- Generator: Adobe Illustrator 25.2.0, SVG Export Plug-In . SVG Version: 6.00 Build 0)  -->
<svg version="1.1" id="Layer_1" xmlns="http://www.w3.org/2000/svg" xmlns:xlink="http://www.w3.org/1999/xlink" x="0px" y="0px"
	 viewBox="0 0 563 262" style="enable-background:new 0 0 563 262;" xml:space="preserve">
<style type="text/css">
	.st0{fill:url(#SVGID_1_);}
	.st1{fill:url(#SVGID_2_);}
	.st2{fill:url(#SVGID_3_);}
	.st3{fill:url(#SVGID_4_);}
	.st4{fill:url(#SVGID_5_);}
	.st5{fill:#2196F3;}
	.st6{fill:#E91E63;}
</style>
<linearGradient id="SVGID_1_" gradientUnits="userSpaceOnUse" x1="-940.3214" y1="161.1745" x2="-846.8011" y2="161.1745" gradientTransform="matrix(-1 0 0 -1 -387.7811 264)">
	<stop  offset="0" style="stop-color:#2196F3"/>
	<stop  offset="1" style="stop-color:#E91E63"/>
</linearGradient>
<path class="st0" d="M459,67.4v-1.3c0-3.8,1.9-7.2,5.2-9.2c3.2-2,7.2-2.1,10.6-0.4l71.2,36.2c4.1,2.1,6.6,6.2,6.6,10.8
	s-2.6,8.7-6.8,10.8l-71.2,34.9c-1.5,0.7-3.1,1.1-4.8,1.1c-2,0-4-0.6-5.7-1.6c-3.2-2-5.1-5.4-5.1-9.2v-1.4c0-4.1,2.3-7.9,6-9.7
	l51.4-25.6L465,77.1C461.3,75.2,459,71.5,459,67.4z"/>
<linearGradient id="SVGID_2_" gradientUnits="userSpaceOnUse" x1="459.4999" y1="89.2705" x2="553.0002" y2="89.2705">
	<stop  offset="0" style="stop-color:#2196F3"/>
	<stop  offset="1" style="stop-color:#E91E63"/>
</linearGradient>
<path class="st1" d="M464.6,56.9c3.2-2,7.2-2.1,10.6-0.4l71.2,36.2c4.1,2.1,6.6,6.2,6.6,10.8s-2.6,8.7-6.8,10.8l-18.2,8.9l1.7-6
	c2-7-7.7-11.8-7.8-11.9l-1.2-0.6l-0.2-0.1c0,0-0.1-0.1-0.1-0.1l-0.1-0.1l-54.9-27.6c-3.7-1.8-6-5.6-6-9.7v-1.3
	C459.5,62.3,461.4,58.9,464.6,56.9z"/>
<linearGradient id="SVGID_3_" gradientUnits="userSpaceOnUse" x1="10.4597" y1="102.8205" x2="103.98" y2="102.8205">
	<stop  offset="0" style="stop-color:#E91E63"/>
	<stop  offset="1" style="stop-color:#2196F3"/>
</linearGradient>
<path class="st2" d="M104,67.4v-1.3c0-3.8-1.9-7.2-5.2-9.2c-3.2-2-7.2-2.1-10.6-0.4L17.1,92.7c-4.1,2.1-6.6,6.2-6.6,10.8
	s2.6,8.7,6.8,10.8l71.2,34.9c1.5,0.7,3.1,1.1,4.8,1.1c2,0,4-0.6,5.7-1.6c3.2-2,5.1-5.4,5.1-9.2v-1.4c0-4.1-2.3-7.9-6-9.7l-51.4-25.6
	L98,77.1C101.7,75.2,104,71.5,104,67.4z"/>
<linearGradient id="SVGID_4_" gradientUnits="userSpaceOnUse" x1="9.9997" y1="89.2705" x2="103.5" y2="89.2705">
	<stop  offset="0" style="stop-color:#2196F3"/>
	<stop  offset="1" style="stop-color:#E91E63"/>
</linearGradient>
<path class="st3" d="M98.3,56.9c-3.2-2-7.2-2.1-10.6-0.4L16.6,92.7c-4.1,2.1-6.6,6.2-6.6,10.8s2.6,8.7,6.8,10.8l18.2,8.9l-1.7-6
	c-2-7,7.7-11.8,7.8-11.9l1.2-0.6l0.2-0.1c0,0,0.1-0.1,0.1-0.1l0.1-0.1l54.9-27.6c3.7-1.8,6-5.6,6-9.7v-1.3
	C103.5,62.3,101.6,58.9,98.3,56.9z"/>
<linearGradient id="SVGID_5_" gradientUnits="userSpaceOnUse" x1="407.6179" y1="102.805" x2="459.6921" y2="102.805">
	<stop  offset="0" style="stop-color:#2196F3"/>
	<stop  offset="1" style="stop-color:#E91E63"/>
</linearGradient>
<path class="st4" d="M457.3,40.8L457.3,40.8c-2.2-2.9-5.6-4.4-9.1-4.1l-0.1,0c-4.4,0.4-8,3.5-9.3,8l-30.8,109.8
	c-1,3.6-0.3,7.4,1.9,10.3c2,2.6,5,4.1,8.2,4.1c0.3,0,0.6,0,0.9,0c4.4-0.4,8-3.5,9.3-8l30.9-109.8C460.2,47.6,459.5,43.7,457.3,40.8z
	"/>
<path class="st5" d="M71.9,217.8c1.3-2.5,2.9-4.8,4.6-6.9c1.7-2,3.6-3.9,5.5-5.5c3.9-3.3,8-5.8,12.1-8.1c8.3-4.4,16.8-7.4,25.4-9.8
	c17.1-4.8,34.4-7.4,51.6-9.3c17.2-1.8,34.5-2.7,51.7-3.1s34.4-0.1,51.6,0.5c17.2,0.6,34.3,1.7,51.4,3.2c4.3,0.4,8.5,0.8,12.8,1.2
	c4.2,0.4,8.5,0.8,12.7,1.1c8.5,0.6,17,1,25.5,1.2c17,0.2,34.1-0.4,50.8-3.5c8.4-1.5,16.6-3.6,24.5-6.7c3.9-1.6,7.8-3.4,11.4-5.7
	c1.8-1.1,3.5-2.4,5.2-3.7c1.6-1.4,3.2-2.9,4.4-4.6c-1.1,1.8-2.6,3.4-4.2,4.8c-1.6,1.4-3.3,2.8-5.1,4c-3.5,2.4-7.4,4.4-11.3,6.2
	c-7.9,3.5-16.2,5.9-24.5,7.8c-16.8,3.7-34,5.1-51.2,5.6c-8.6,0.2-17.2,0.1-25.8-0.2c-4.3-0.1-8.6-0.4-12.9-0.6
	c-4.3-0.2-8.5-0.4-12.8-0.6c-17-0.7-34.1-1.1-51.1-1c-17,0.1-34,0.6-51,1.6s-33.8,2.7-50.5,5.1c-16.7,2.5-33.2,5.8-48.8,10.9
	c-7.8,2.6-15.3,5.6-22,9.5c-3.3,1.9-6.4,4.1-8.9,6.5c-1.3,1.2-2.4,2.4-3.4,3.7c-0.9,1.3-1.8,2.6-2.4,3.9L71.9,217.8z"/>
<g>
	<path class="st6" d="M229.5,80c-23.3,0-39.6,17.4-39.6,42.4c0,24.2,15.8,41.1,38.5,41.1c11.2,0,21.2-4,28.3-11.3
		c7.4-7.6,11.3-18.4,11.3-31.2c0-11.6-3.5-21.7-10.2-29.1C250.8,84.1,241,80,229.5,80z M229,147.9c-12.7,0-19.3-12.9-19.3-25.7
		c0-13.2,6-26.6,19.4-26.6c13.3,0,19.3,13.4,19.3,25.8C248.4,134.6,242.4,147.9,229,147.9z"/>
	<path class="st6" d="M338.2,137.2V48.9c0-3.7-2.8-6.8-6.3-6.8h-8.8c-3.5,0-6.3,3-6.3,6.8v29.7c-3.9-2.4-8.4-3.6-13.2-3.6
		c-7.9,0-15.4,3.6-21.1,10.2c-7.2,8.3-11.2,20.8-11.1,35.2c0,25,13,43.2,31,43.2c5.9,0,11.5-1.9,16.1-5.6c0.4,2.2,2.2,3.9,4.4,3.9
		h10.6c1.4,0,2.7-0.6,3.6-1.6c1.1-1.1,1.7-2.8,1.5-4.4C338.3,150.2,338.2,141.7,338.2,137.2z M305.5,141.6
		c-9.3,0-12.6-11.8-12.6-21.8c0-14,5-23.1,12.8-23.1c5.9,0,9.6,5.6,10.7,11.2l0,0.2c0.3,1.2,0.4,3.1,0.4,4.4v12.8
		c0,1.9-0.1,3.4-0.4,4.7C315.1,136.9,310.7,141.6,305.5,141.6z"/>
	<path class="st6" d="M397.3,90.3c-5.3-9.9-13.7-15.1-24.3-15.1c-19.7,0-33.5,18.7-33.5,45.5c0,26,13.7,42.9,34.8,42.9
		c10.8,0,18.2-2.8,22.5-5.2c2-1.1,3.1-3.6,2.7-6l-1.9-9.6c-0.3-1.8-1.5-3.2-3-3.9c-1.4-0.6-3-0.6-4.4,0.1c-3.2,1.7-7.2,3.3-14.4,3.3
		c-10,0-13.5-7.4-14.8-13.6c-0.1-0.6,0.2-1,0.3-1.1h36.1c2.7,0,4.9-2.2,5.2-5l0.1-0.6c0.1-1.4,0.3-3.6,0.3-6.2
		C403,111.2,402.5,100,397.3,90.3z M362.6,104c1.5-3.7,4.4-8.2,9.5-8.2c2.7,0,4.7,0.8,6.2,2.7c1.4,1.7,2.5,4,3.1,7
		c0.1,0.6-0.2,1.1-0.3,1.1h-17.5c-0.4,0-0.7-0.3-0.8-0.5C362.5,105.7,362.2,104.9,362.6,104z"/>
	<path class="st6" d="M192.7,151.1l-34-50.1c-1-1.4-0.9-3.3,0.3-4.7l27.9-32.8c2.5-3,3.1-7,1.4-10.5c-1.6-3.5-5.1-5.7-9-5.7
		c-3,0-5.8,1.3-7.6,3.6l-32.5,40c-1.1,1.4-2.5,3.2-4,5.3l0-39.1c0-5.4-4.4-9.9-9.9-9.9h-0.9c-2.6,0-5.1,1-7,2.9
		c-1.9,1.9-2.9,4.3-2.9,7l0.1,99.5c0,5.4,4.4,9.9,9.9,9.9h0.9c5.4,0,9.9-4.4,9.9-9.9l0-33.7c0-0.9,0.3-1.8,0.9-2.5l3.2-3.7
		c0.8-0.9,2-1.4,3.2-1.3c1.2,0.1,2.3,0.7,3,1.7l30.3,45.1c1.8,2.7,4.9,4.4,8.2,4.4h0.7c3.7,0,7-2,8.7-5.3
		C194.9,158,194.7,154.1,192.7,151.1z"/>
</g>
</svg>
