<?xml version="1.0" encoding="utf-8"?>
<!-- Generator: Adobe Illustrator 25.2.0, SVG Export Plug-In . SVG Version: 6.00 Build 0)  -->
<svg version="1.1" id="Layer_1" xmlns="http://www.w3.org/2000/svg" xmlns:xlink="http://www.w3.org/1999/xlink" x="0px" y="0px"
	 viewBox="0 0 640 226" style="enable-background:new 0 0 640 226;" xml:space="preserve">
<style type="text/css">
	.st0{fill:#FFFFFF;}
	.st1{fill:#00A99D;stroke:#00A99D;stroke-width:4;stroke-miterlimit:10;}
</style>
<path class="st0" d="M41.49,87.28H10.34l72.53-44.57v19.44L41.49,87.28z M81.42,136L10.34,87.28h31.15L81.42,114V136z"/>
<path class="st0" d="M550.13,62.16V42.72l72.53,44.57h-31.15L550.13,62.16z M551.58,114l39.93-26.71h31.15L551.58,136V114z"/>
<path class="st0" d="M242.64,150.19c-6.62-3.89-11.74-9.39-15.36-16.5s-5.43-15.35-5.43-24.71V72.83c0-9.36,1.81-17.6,5.43-24.71
	c3.63-7.11,8.74-12.61,15.36-16.5c6.61-3.89,14.26-5.83,22.93-5.83c8.67,0,16.31,1.95,22.93,5.83c6.61,3.89,11.74,9.39,15.36,16.5
	s5.43,15.35,5.43,24.71v36.15c0,9.36-1.81,17.6-5.43,24.71c-3.63,7.11-8.74,12.61-15.36,16.5c-6.62,3.89-14.26,5.83-22.93,5.83
	C256.9,156.02,249.26,154.08,242.64,150.19z M279.13,134.83c3.91-2.37,6.93-5.74,9.07-10.09c2.14-4.35,3.21-9.41,3.21-15.14V72.22
	c0-5.74-1.07-10.78-3.21-15.14s-5.17-7.72-9.07-10.09c-3.91-2.37-8.43-3.55-13.56-3.55s-9.65,1.19-13.56,3.55
	c-3.91,2.37-6.93,5.74-9.07,10.09c-2.14,4.36-3.21,9.41-3.21,15.14v37.38c0,5.74,1.07,10.78,3.21,15.14
	c2.14,4.36,5.16,7.72,9.07,10.09c3.91,2.37,8.43,3.55,13.56,3.55C270.7,138.38,275.22,137.2,279.13,134.83z"/>
<path class="st0" d="M331.77,27.11h17.46V154.7h-17.46V27.11z M343.58,137.68h28.16c9.18,0,16.3-2.45,21.35-7.33
	c5.05-4.88,7.57-11.77,7.57-20.66V72.13c0-8.89-2.53-15.78-7.57-20.66c-5.05-4.88-12.16-7.33-21.35-7.33h-28.16V27.12h27.64
	c9.98,0,18.51,1.78,25.58,5.35s12.46,8.78,16.17,15.62c3.71,6.84,5.57,15.1,5.57,24.75V109c0,9.65-1.85,17.9-5.57,24.75
	c-3.71,6.84-9.11,12.05-16.21,15.62c-7.1,3.57-15.65,5.35-25.63,5.35h-27.55L343.58,137.68L343.58,137.68z"/>
<path class="st0" d="M440.06,27.11h17.46V154.7h-17.46V27.11z M448.53,27.11H520v17.02h-71.46V27.11z M448.53,82.83h62.05v17.02
	h-62.05V82.83z M448.53,137.68H520v17.02h-71.46V137.68z"/>
<g>
	<polygon class="st0" points="203.74,155.2 181.7,155.2 148.91,116.5 146.87,114.1 138.35,104.06 138.14,103.82 138.25,96.6 
		139.33,25.9 156.67,25.9 155.97,72.51 155.88,78.32 155.57,98.11 157.21,100.03 158.83,101.95 	"/>
</g>
<path class="st1" d="M193.4,23.83l-36.87,54.29l-1,1.49l-15.64,23.03l-2.95,4.35l-37.56,55.29h20.19l28.4-41.83l0.15-0.22l9.57-14.1
	l0.95-1.39l54.94-80.9H193.4z"/>
<circle class="st0" cx="148.67" cy="103.32" r="5.76"/>
<rect x="97.92" y="193.1" class="st0" width="424.08" height="15.07"/>
</svg>
