<?xml version="1.0" encoding="utf-8"?>
<!-- Generator: Adobe Illustrator 25.2.0, SVG Export Plug-In . SVG Version: 6.00 Build 0)  -->
<svg version="1.1" id="Layer_1" xmlns="http://www.w3.org/2000/svg" xmlns:xlink="http://www.w3.org/1999/xlink" x="0px" y="0px"
	 viewBox="0 0 640 195" style="enable-background:new 0 0 640 195;" xml:space="preserve">
<style type="text/css">
	.st0{fill:#FFFFFF;}
	.st1{fill:#CC0033;}
</style>
<path class="st0" d="M40.64,95.75H5.5l64.58-40.49v23.06L40.64,95.75z M70.08,136.34L5.5,95.75h35.14l29.44,17.32V136.34z"/>
<path class="st0" d="M227.5,164.37c-7.47-4.39-13.24-10.59-17.33-18.61c-4.09-8.02-6.13-17.31-6.13-27.87V77.11
	c0-10.56,2.04-19.85,6.13-27.87c4.09-8.02,9.86-14.22,17.33-18.61c7.46-4.39,16.09-6.58,25.87-6.58c9.78,0,18.4,2.2,25.87,6.58
	c7.46,4.39,13.24,10.59,17.33,18.61c4.09,8.02,6.13,17.31,6.13,27.87v40.78c0,10.56-2.04,19.85-6.13,27.87
	c-4.09,8.02-9.86,14.22-17.33,18.61c-7.47,4.39-16.09,6.58-25.87,6.58C243.59,170.95,234.97,168.76,227.5,164.37z M268.67,147.04
	c4.41-2.67,7.82-6.47,10.23-11.38c2.41-4.91,3.62-10.61,3.62-17.08V76.42c0-6.47-1.21-12.16-3.62-17.08
	c-2.41-4.92-5.83-8.71-10.23-11.38c-4.41-2.67-9.51-4.01-15.3-4.01c-5.79,0-10.89,1.34-15.3,4.01c-4.41,2.67-7.82,6.47-10.23,11.38
	c-2.41,4.92-3.62,10.61-3.62,17.08v42.17c0,6.47,1.21,12.16,3.62,17.08c2.41,4.92,5.82,8.71,10.23,11.38
	c4.41,2.67,9.51,4.01,15.3,4.01C259.16,151.05,264.26,149.72,268.67,147.04z"/>
<path class="st0" d="M328.05,25.53h19.69v143.93h-19.69V25.53z M341.37,150.26h31.76c10.36,0,18.39-2.76,24.08-8.27
	c5.7-5.51,8.54-13.28,8.54-23.31V76.32c0-10.03-2.85-17.8-8.54-23.31c-5.7-5.51-13.72-8.27-24.08-8.27h-31.76v-19.2h31.18
	c11.26,0,20.88,2.01,28.86,6.04c7.98,4.03,14.06,9.9,18.24,17.62c4.18,7.72,6.28,17.03,6.28,27.92v40.78
	c0,10.89-2.09,20.19-6.28,27.92c-4.19,7.72-10.28,13.59-18.29,17.62c-8.01,4.03-17.65,6.04-28.91,6.04h-31.08V150.26z"/>
<path class="st0" d="M450.2,25.53h19.69v143.93H450.2V25.53z M459.76,25.53h80.61v19.2h-80.61V25.53z M459.76,88.39h69.99v19.2
	h-69.99V88.39z M459.76,150.26h80.61v19.2h-80.61V150.26z"/>
<path class="st0" d="M569.92,55.27l64.58,40.49h-35.14l-29.44-17.42V55.27z M599.36,95.75h35.14l-64.58,40.59v-23.26L599.36,95.75z"
	/>
<g>
	<polygon class="st0" points="183.63,170.02 158.76,170.02 121.77,126.37 119.47,123.66 109.86,112.33 109.63,112.06 109.75,103.92 
		110.97,24.17 130.53,24.17 129.74,76.74 129.64,83.3 129.29,105.62 131.14,107.79 132.96,109.95 	"/>
</g>
<path class="st1" d="M169.94,24.17l-39.22,57.56l-1.07,1.58l-16.65,24.42l-3.13,4.6L69.9,170.95h21.48l30.22-44.35l0.16-0.23
	l10.18-14.95l1.01-1.48l58.45-85.78H169.94z"/>
</svg>
